<?xml version="1.0" encoding="UTF-8" standalone="no"?><!-- Generator: Gravit.io --><svg xmlns="http://www.w3.org/2000/svg" xmlns:xlink="http://www.w3.org/1999/xlink" style="isolation:isolate" viewBox="-35 -35 1392.758 396.547" width="1392.758pt" height="396.547pt"><defs><clipPath id="_clipPath_eXyg6xsrECDzhqFGnzzMIwiuS26MpKmi"><rect width="1322.758" height="326.547"/></clipPath></defs><g clip-path="url(#_clipPath_eXyg6xsrECDzhqFGnzzMIwiuS26MpKmi)"><rect width="1322.758" height="326.547" style="fill:rgb(70,70,70)" fill-opacity="0"/><g><mask id="_mask_hpWvs6FH21Cgx8q4G3EqrfjpWTigu5g5"><circle vector-effect="non-scaling-stroke" cx="157.45660067680026" cy="161.05931777417092" r="133.00000000000014" fill="white" stroke="none"/></mask><circle vector-effect="non-scaling-stroke" cx="157.45660067680026" cy="161.05931777417092" r="133.00000000000014" fill="none"/><circle vector-effect="non-scaling-stroke" cx="157.45660067680026" cy="161.05931777417092" r="133.00000000000014" fill="none" mask="url(#_mask_hpWvs6FH21Cgx8q4G3EqrfjpWTigu5g5)" stroke-width="20" stroke="rgb(255,255,255)" stroke-linejoin="miter" stroke-linecap="square" stroke-miterlimit="3"/><path d=" M 52.457 160.559 C 52.457 102.332 99.73 55.059 157.957 55.059 C 216.184 55.059 263.457 102.332 263.457 160.559 C 263.457 218.786 216.184 266.059 157.957 266.059 C 99.73 266.059 52.457 218.786 52.457 160.559 Z  M 216.626 160.121 L 167.312 188.593 L 117.999 217.064 L 117.999 160.121 L 117.999 103.179 L 167.312 131.65 L 216.626 160.121 Z " fill-rule="evenodd" fill="rgb(255,255,255)"/><path d=" M 373.358 285.186 L 373.358 285.186 L 373.358 285.186 Q 373.358 290.02 369.879 292.803 L 369.879 292.803 L 369.879 292.803 Q 366.4 295.586 360.199 295.586 L 360.199 295.586 L 360.199 295.586 Q 354.486 295.586 350.092 293.437 L 350.092 293.437 L 350.092 286.406 L 350.092 286.406 Q 353.705 288.018 356.207 288.677 L 356.207 288.677 L 356.207 288.677 Q 358.71 289.336 360.785 289.336 L 360.785 289.336 L 360.785 289.336 Q 363.275 289.336 364.606 288.384 L 364.606 288.384 L 364.606 288.384 Q 365.936 287.432 365.936 285.552 L 365.936 285.552 L 365.936 285.552 Q 365.936 284.502 365.351 283.684 L 365.351 283.684 L 365.351 283.684 Q 364.765 282.866 363.629 282.109 L 363.629 282.109 L 363.629 282.109 Q 362.494 281.353 359.003 279.692 L 359.003 279.692 L 359.003 279.692 Q 355.731 278.154 354.096 276.738 L 354.096 276.738 L 354.096 276.738 Q 352.46 275.322 351.483 273.442 L 351.483 273.442 L 351.483 273.442 Q 350.507 271.562 350.507 269.048 L 350.507 269.048 L 350.507 269.048 Q 350.507 264.312 353.717 261.602 L 353.717 261.602 L 353.717 261.602 Q 356.928 258.892 362.592 258.892 L 362.592 258.892 L 362.592 258.892 Q 365.375 258.892 367.902 259.551 L 367.902 259.551 L 367.902 259.551 Q 370.429 260.21 373.187 261.406 L 373.187 261.406 L 370.746 267.29 L 370.746 267.29 Q 367.89 266.118 366.022 265.654 L 366.022 265.654 L 366.022 265.654 Q 364.154 265.19 362.348 265.19 L 362.348 265.19 L 362.348 265.19 Q 360.199 265.19 359.052 266.191 L 359.052 266.191 L 359.052 266.191 Q 357.904 267.192 357.904 268.804 L 357.904 268.804 L 357.904 268.804 Q 357.904 269.805 358.368 270.549 L 358.368 270.549 L 358.368 270.549 Q 358.832 271.294 359.845 271.99 L 359.845 271.99 L 359.845 271.99 Q 360.858 272.686 364.643 274.492 L 364.643 274.492 L 364.643 274.492 Q 369.647 276.885 371.503 279.29 L 371.503 279.29 L 371.503 279.29 Q 373.358 281.694 373.358 285.186 Z  M 512.598 265.703 L 512.598 295.098 L 505.029 295.098 L 505.029 265.703 L 495.337 265.703 L 495.337 259.404 L 522.29 259.404 L 522.29 265.703 L 512.598 265.703 Z  M 668.292 259.404 L 675.836 259.404 L 675.836 282.5 L 675.836 282.5 Q 675.836 286.455 674.066 289.434 L 674.066 289.434 L 674.066 289.434 Q 672.296 292.412 668.951 293.999 L 668.951 293.999 L 668.951 293.999 Q 665.606 295.586 661.041 295.586 L 661.041 295.586 L 661.041 295.586 Q 654.156 295.586 650.348 292.058 L 650.348 292.058 L 650.348 292.058 Q 646.539 288.53 646.539 282.402 L 646.539 282.402 L 646.539 259.404 L 654.083 259.404 L 654.083 281.255 L 654.083 281.255 Q 654.083 285.381 655.743 287.31 L 655.743 287.31 L 655.743 287.31 Q 657.403 289.238 661.236 289.238 L 661.236 289.238 L 661.236 289.238 Q 664.947 289.238 666.62 287.297 L 666.62 287.297 L 666.62 287.297 Q 668.292 285.356 668.292 281.206 L 668.292 281.206 L 668.292 259.404 Z  M 833.19 276.909 L 833.19 276.909 L 833.19 276.909 Q 833.19 285.723 828.173 290.41 L 828.173 290.41 L 828.173 290.41 Q 823.156 295.098 813.684 295.098 L 813.684 295.098 L 803.576 295.098 L 803.576 259.404 L 814.782 259.404 L 814.782 259.404 Q 823.522 259.404 828.356 264.019 L 828.356 264.019 L 828.356 264.019 Q 833.19 268.633 833.19 276.909 Z  M 825.329 277.104 L 825.329 277.104 L 825.329 277.104 Q 825.329 265.605 815.173 265.605 L 815.173 265.605 L 811.144 265.605 L 811.144 288.848 L 814.392 288.848 L 814.392 288.848 Q 825.329 288.848 825.329 277.104 Z  M 967.156 295.098 L 959.588 295.098 L 959.588 259.404 L 967.156 259.404 L 967.156 295.098 Z  M 1127.538 277.202 L 1127.538 277.202 L 1127.538 277.202 Q 1127.538 286.064 1123.144 290.825 L 1123.144 290.825 L 1123.144 290.825 Q 1118.749 295.586 1110.546 295.586 L 1110.546 295.586 L 1110.546 295.586 Q 1102.343 295.586 1097.948 290.825 L 1097.948 290.825 L 1097.948 290.825 Q 1093.554 286.064 1093.554 277.153 L 1093.554 277.153 L 1093.554 277.153 Q 1093.554 268.242 1097.96 263.542 L 1097.96 263.542 L 1097.96 263.542 Q 1102.367 258.843 1110.595 258.843 L 1110.595 258.843 L 1110.595 258.843 Q 1118.822 258.843 1123.18 263.579 L 1123.18 263.579 L 1123.18 263.579 Q 1127.538 268.315 1127.538 277.202 Z  M 1101.488 277.202 L 1101.488 277.202 L 1101.488 277.202 Q 1101.488 283.184 1103.759 286.211 L 1103.759 286.211 L 1103.759 286.211 Q 1106.029 289.238 1110.546 289.238 L 1110.546 289.238 L 1110.546 289.238 Q 1119.603 289.238 1119.603 277.202 L 1119.603 277.202 L 1119.603 277.202 Q 1119.603 265.142 1110.595 265.142 L 1110.595 265.142 L 1110.595 265.142 Q 1106.078 265.142 1103.783 268.181 L 1103.783 268.181 L 1103.783 268.181 Q 1101.488 271.221 1101.488 277.202 Z  M 1275.005 285.186 L 1275.005 285.186 L 1275.005 285.186 Q 1275.005 290.02 1271.526 292.803 L 1271.526 292.803 L 1271.526 292.803 Q 1268.047 295.586 1261.846 295.586 L 1261.846 295.586 L 1261.846 295.586 Q 1256.133 295.586 1251.738 293.437 L 1251.738 293.437 L 1251.738 286.406 L 1251.738 286.406 Q 1255.352 288.018 1257.854 288.677 L 1257.854 288.677 L 1257.854 288.677 Q 1260.356 289.336 1262.432 289.336 L 1262.432 289.336 L 1262.432 289.336 Q 1264.922 289.336 1266.252 288.384 L 1266.252 288.384 L 1266.252 288.384 Q 1267.583 287.432 1267.583 285.552 L 1267.583 285.552 L 1267.583 285.552 Q 1267.583 284.502 1266.997 283.684 L 1266.997 283.684 L 1266.997 283.684 Q 1266.411 282.866 1265.276 282.109 L 1265.276 282.109 L 1265.276 282.109 Q 1264.141 281.353 1260.649 279.692 L 1260.649 279.692 L 1260.649 279.692 Q 1257.378 278.154 1255.742 276.738 L 1255.742 276.738 L 1255.742 276.738 Q 1254.106 275.322 1253.13 273.442 L 1253.13 273.442 L 1253.13 273.442 Q 1252.153 271.562 1252.153 269.048 L 1252.153 269.048 L 1252.153 269.048 Q 1252.153 264.312 1255.364 261.602 L 1255.364 261.602 L 1255.364 261.602 Q 1258.574 258.892 1264.238 258.892 L 1264.238 258.892 L 1264.238 258.892 Q 1267.021 258.892 1269.548 259.551 L 1269.548 259.551 L 1269.548 259.551 Q 1272.075 260.21 1274.834 261.406 L 1274.834 261.406 L 1272.393 267.29 L 1272.393 267.29 Q 1269.536 266.118 1267.668 265.654 L 1267.668 265.654 L 1267.668 265.654 Q 1265.801 265.19 1263.994 265.19 L 1263.994 265.19 L 1263.994 265.19 Q 1261.846 265.19 1260.698 266.191 L 1260.698 266.191 L 1260.698 266.191 Q 1259.551 267.192 1259.551 268.804 L 1259.551 268.804 L 1259.551 268.804 Q 1259.551 269.805 1260.015 270.549 L 1260.015 270.549 L 1260.015 270.549 Q 1260.478 271.294 1261.492 271.99 L 1261.492 271.99 L 1261.492 271.99 Q 1262.505 272.686 1266.289 274.492 L 1266.289 274.492 L 1266.289 274.492 Q 1271.294 276.885 1273.149 279.29 L 1273.149 279.29 L 1273.149 279.29 Q 1275.005 281.694 1275.005 285.186 Z " fill="rgb(255,255,255)"/><path d=" M 320.241 27.613 L 1297.241 27.613 L 1297.241 220.547 L 320.241 220.547 L 320.241 27.613 Z  M 407.494 71.938 L 407.494 71.938 L 407.494 71.938 Q 386.312 71.938 374.052 86.045 L 374.052 86.045 L 374.052 86.045 Q 361.791 100.151 361.791 124.673 L 361.791 124.673 L 361.791 124.673 Q 361.791 149.897 373.612 163.652 L 373.612 163.652 L 373.612 163.652 Q 385.434 177.407 407.318 177.407 L 407.318 177.407 L 407.318 177.407 Q 420.766 177.407 437.992 172.573 L 437.992 172.573 L 437.992 185.669 L 437.992 185.669 Q 424.633 190.679 405.033 190.679 L 405.033 190.679 L 405.033 190.679 Q 376.644 190.679 361.22 173.452 L 361.22 173.452 L 361.22 173.452 Q 345.795 156.226 345.795 124.497 L 345.795 124.497 L 345.795 124.497 Q 345.795 104.634 353.222 89.692 L 353.222 89.692 L 353.222 89.692 Q 360.648 74.751 374.667 66.665 L 374.667 66.665 L 374.667 66.665 Q 388.686 58.579 407.67 58.579 L 407.67 58.579 L 407.67 58.579 Q 427.885 58.579 443.002 65.962 L 443.002 65.962 L 436.674 78.794 L 436.674 78.794 Q 422.084 71.938 407.494 71.938 Z  M 563.27 188.921 L 547.801 188.921 L 531.805 148.052 L 480.301 148.052 L 464.48 188.921 L 449.363 188.921 L 500.164 59.897 L 512.732 59.897 L 563.27 188.921 Z  M 485.574 134.604 L 527.147 134.604 L 512.205 94.79 L 512.205 94.79 Q 509.305 87.231 506.229 76.245 L 506.229 76.245 L 506.229 76.245 Q 504.295 84.683 500.691 94.79 L 500.691 94.79 L 485.574 134.604 Z  M 623.684 135.483 L 596.877 135.483 L 596.877 188.921 L 581.936 188.921 L 581.936 60.425 L 617.18 60.425 L 617.18 60.425 Q 640.822 60.425 652.116 69.478 L 652.116 69.478 L 652.116 69.478 Q 663.41 78.53 663.41 96.724 L 663.41 96.724 L 663.41 96.724 Q 663.41 122.212 637.57 131.177 L 637.57 131.177 L 672.463 188.921 L 654.797 188.921 L 623.684 135.483 Z  M 596.877 73.52 L 596.877 122.651 L 617.355 122.651 L 617.355 122.651 Q 633.176 122.651 640.559 116.367 L 640.559 116.367 L 640.559 116.367 Q 647.941 110.083 647.941 97.515 L 647.941 97.515 L 647.941 97.515 Q 647.941 84.77 640.427 79.145 L 640.427 79.145 L 640.427 79.145 Q 632.912 73.52 616.301 73.52 L 616.301 73.52 L 596.877 73.52 Z  M 790.445 188.921 L 774.977 188.921 L 758.98 148.052 L 707.477 148.052 L 691.656 188.921 L 676.539 188.921 L 727.34 59.897 L 739.908 59.897 L 790.445 188.921 Z  M 712.75 134.604 L 754.322 134.604 L 739.381 94.79 L 739.381 94.79 Q 736.48 87.231 733.404 76.245 L 733.404 76.245 L 733.404 76.245 Q 731.471 84.683 727.867 94.79 L 727.867 94.79 L 712.75 134.604 Z  M 878.018 188.921 L 865.977 188.921 L 822.383 75.015 L 821.68 75.015 L 821.68 75.015 Q 822.91 88.55 822.91 107.183 L 822.91 107.183 L 822.91 188.921 L 809.111 188.921 L 809.111 60.425 L 831.611 60.425 L 872.305 166.421 L 873.008 166.421 L 914.053 60.425 L 936.377 60.425 L 936.377 188.921 L 921.436 188.921 L 921.436 106.128 L 921.436 106.128 Q 921.436 91.89 922.666 75.19 L 922.666 75.19 L 921.963 75.19 L 878.018 188.921 Z  M 1044.252 175.562 L 1044.252 188.921 L 972.621 188.921 L 972.621 60.425 L 1044.252 60.425 L 1044.252 73.696 L 987.563 73.696 L 987.563 115.093 L 1040.824 115.093 L 1040.824 128.276 L 987.563 128.276 L 987.563 175.562 L 1044.252 175.562 Z  M 1113.279 73.696 L 1113.279 188.921 L 1098.338 188.921 L 1098.338 73.696 L 1057.645 73.696 L 1057.645 60.425 L 1153.973 60.425 L 1153.973 73.696 L 1113.279 73.696 Z  M 1271.867 60.425 L 1271.867 188.921 L 1256.926 188.921 L 1256.926 128.452 L 1189.25 128.452 L 1189.25 188.921 L 1174.309 188.921 L 1174.309 60.425 L 1189.25 60.425 L 1189.25 115.093 L 1256.926 115.093 L 1256.926 60.425 L 1271.867 60.425 Z " fill-rule="evenodd" fill="rgb(255,255,255)"/></g></g></svg>